Patient4_TMGait_0pt5_01_right_25_EMG.mot
version=1
nRows=40
nColumns=33
inDegrees=no
endheader
time	1LAddLong	2LGlutMax	3LGlutMed	4LIliopsoas	5LSemiMemb	6LBicFemLong	7LRecFem	8LVastMed	9LVastLat	10LGasMed	11LTibAnt	12lTibPost	13LPeroneusLong	14LSol	15LExtDigLong	16LFlexDigLong	17RAddLong	18RGlutMax	19RGlutMed	20RIliopsoas	21RSemiMemb	22RBicFemLong	23RRecFem	24RVastMed	25RVastLat	26RGasMed	27RTibAnt	28RTibPost	29RPeroneusLong	30RSol	31RExtDigLong	32RFlexDigLong
32.77	-0.018463	-0.17593	0.063477	0.037231	-0.027008	0.36697	-0.017853	0.006104	0.027161	0.2594	0.035706	0.026855	-0.53314	-0.29633	-0.050659	-0.000916	0.076752	-0.063324	0.64667	-0.043182	0.11826	-0.027924	0.7605	0.2063	0.018768	-0.014801	1.1972	0.010834	-0.27847	-0.16907	-0.020142	-0.009003
32.771	-0.023346	-0.14496	-0.095673	0.014343	-0.041809	0.06546	0.005035	0.002441	0.046844	0.27466	0.005798	0.029297	0.37994	-0.29159	-0.036316	0.007477	0.035095	-0.045166	0.78796	0.06012	0.11246	-0.021057	0.46387	0.19852	0.028992	-0.006866	0.57358	0.002594	-0.26047	-0.21088	-0.014343	-0.007629
32.772	0.002594	-0.16083	-0.19089	0.006104	-0.065002	-0.15274	0.007172	0.003357	0.042572	0.33936	0.004272	0.005493	-0.093231	-0.031586	0.010071	-0.00412	0.034637	-0.016785	0.60028	0.015411	0.096436	-0.04425	0.16434	0.13733	0.023193	-0.012512	-0.57068	0.002441	-0.26901	-0.19089	-0.020447	-0.005188
32.773	0.011749	-0.1564	0.052643	0.012665	-0.001526	0.035553	0.019379	-0.002136	0.019379	0.24857	-0.011292	0.024719	0.93811	0.029297	-0.076752	-0.003052	0.049896	0.024719	0.47638	0.024109	0.092468	-0.052185	0.021057	0.073242	-0.008545	0.002136	-1.3992	0.002289	0.072327	-0.28183	-0.022583	-0.004578
32.774	0.02182	-0.11398	0.13245	0.001984	0.1329	0.092621	0.023346	-0.005646	-0.006104	-0.24262	-0.073853	0.036774	0.35965	0.09903	0.097351	-0.002747	0.061188	0.081329	0.60089	0.003052	0.083618	-0.054016	-0.09613	0.07782	0.001678	0.017548	-1.0544	0.00885	0.2121	-0.40482	-0.016174	-0.00946
32.775	0.017548	-0.15915	0.02533	0.019836	0.080566	0.086212	0.070953	-0.005798	-0.073853	-0.5603	-0.024414	0.036163	-0.96634	-0.13947	0.1915	0.019379	0.11017	-0.027313	0.62149	-0.029297	0.061798	-0.056458	-0.20737	0.041504	0.003662	0.020447	-0.68878	-0.001831	0.25269	-0.4567	-0.018158	0.001373
32.776	0.009155	-0.19898	0.15671	0.022278	0.06546	0.042267	0.065918	-0.006866	-0.082245	-0.36652	0.042419	0.020294	-0.26184	-0.046082	0.25467	0.036163	0.080872	-0.10956	0.59372	-0.0383	0.042725	-0.065613	-0.14679	0.019684	0.015411	0.020599	0.21729	-0.002136	0.24918	-0.29709	-0.016632	0.000305
32.777	0.004272	-0.18845	0.14481	-0.003052	0.021973	0.048065	0.060272	0.008087	-0.15488	-0.030518	-0.003357	0.033875	0.79025	0.096741	0.17838	0.007477	0.033264	-0.091095	0.53223	-0.090637	0.046234	-0.051117	-0.023651	0.050201	0.024109	0.009766	0.59769	-0.009308	0.22339	-0.15243	-0.0177	0.005035
32.778	-0.001526	-0.15808	0.14648	0.006409	0.012512	0.002289	-0.023956	0.014801	-0.16663	0.36621	-0.097351	0.026398	0.1506	-0.001221	-0.038757	-0.03006	-0.02594	-0.10162	0.48096	-0.048065	0.064087	-0.024872	0.12604	0.19562	0.055542	-0.000153	0.44586	-0.003815	0.037537	-0.076141	-0.02182	-0.00824
32.779	0.018005	-0.13046	0.076904	-0.005493	0.050659	-0.010681	-0.036621	0.008392	-0.10407	0.4715	-0.048218	0.037842	-0.3096	-0.36926	-0.26474	-0.057831	-0.032501	-0.14587	0.39887	-0.005951	0.079803	-0.016327	0.1329	0.23727	0.060272	-0.007935	0.383	-0.011292	-0.008545	0.069275	-0.019836	-0.010223
32.78	0.009766	-0.13886	0.015259	-0.004425	0.074463	0.030212	-0.023346	0.012054	-0.046234	0.50873	0.051575	0.054626	-0.44189	-0.59479	-0.37415	-0.034485	-0.081482	-0.11108	0.36423	0.10956	0.067291	0.007629	0.12054	0.21545	0.048828	-0.005951	-0.2623	-0.010681	0.007019	0.30456	-0.019379	-0.00885
32.781	0.010071	-0.12039	-0.037231	-0.00824	0.052338	0.097198	-0.0737	0.016785	0.13138	0.25955	0.048065	0.046692	-0.59128	-0.3154	-0.34668	0.023956	-0.091248	-0.12283	0.4393	-0.026093	0.049896	0.002289	0.16678	0.11353	0.026093	-0.010223	-0.56122	-0.012817	-0.10422	0.42358	-0.016022	0.000763
32.782	0.007935	-0.10117	-0.1004	0.011444	0.040436	0.03006	-0.088348	0.00412	0.21668	0.52536	0.012054	0.044556	-0.13168	-0.07843	-0.15015	0.024567	-0.080872	-0.081177	0.57754	-0.25574	0.056305	0.010071	0.12619	0.015869	0.024261	-0.016785	-0.42786	-0.0177	-0.17288	0.34347	-0.017242	-0.007782
32.783	0.019226	-0.059662	-0.037384	0.009308	0.050659	-0.020599	-0.00885	-0.003662	0.24414	0.84137	0.020905	0.040894	-0.15625	-0.15091	0.12878	0.010681	-0.028534	-0.055389	0.53268	-0.20386	0.076141	0.03418	0.11322	-0.010223	0.020142	-0.008545	-0.26703	-0.009003	-0.1268	0.21713	-0.013885	-0.006256
32.784	-0.000458	-0.051117	-0.081024	-0.020447	0.038147	0.031586	-0.005646	0.005341	-0.033112	-0.096588	-0.044098	0.024872	0.071869	-0.009766	0.49957	-0.004883	0.027924	-0.053406	0.38773	-0.050201	0.1033	0.024261	0.089111	-0.018463	0.010986	-0.007477	0.022278	-0.010223	-0.045013	0.13214	-0.012207	0.006866
32.785	0.007477	-0.047455	-0.065918	-0.007324	0.032654	0.057526	0.034485	0.006714	-0.16449	-0.74997	-0.18021	0.037842	0.15762	0.04364	0.1207	0	0.046082	-0.016937	0.53009	0.094452	0.10315	-0.005341	0.037384	-0.039215	0.022888	-0.003204	0.42328	-0.008087	0.016022	0.051727	-0.0177	-0.005493
32.786	-0.002289	-0.056458	0.029907	0.013733	0.018158	0.084686	0.059967	0.010529	-0.20996	-0.66925	-0.16907	0.010223	0.25803	0.14847	0.23804	-0.005493	0.024414	-0.093689	0.38025	0.21027	0.085144	-0.062866	0.11032	-0.085754	-0.017242	-0.005798	0.32562	-0.012665	-0.010529	-0.009766	-0.020447	-0.01709
32.787	-0.011139	-0.11536	-0.066071	0.022736	0.020142	0.16617	0.022736	0.012512	-0.12451	-0.48538	-0.006256	0.018768	0.20004	0.33493	-0.17578	0.003204	0.009613	-0.059357	0.48187	0.16327	0.069122	-0.067139	0.093994	-0.17395	-0.014954	-0.009613	0.036163	-0.010071	-0.059357	0.042725	-0.010834	-0.010223
32.788	-0.006409	-0.15686	-0.25803	0.025024	0.016937	0.32135	0.023651	0.007019	0.053864	-0.32486	0.093842	0.028687	-0.028076	0.39093	-0.093079	0.005188	0.036011	-0.10529	0.52368	0.12604	0.073242	-0.08728	0.039978	-0.22568	-0.020599	-0.015259	0.065002	-0.01236	-0.07843	0.038452	-0.013885	-0.011444
32.789	-0.009918	-0.15106	-0.23804	0.020142	0.010223	0.4773	0.027313	0.000458	0.14633	-0.22079	0.098572	0.01358	0.52399	0.30548	0.025787	0.006714	0.042419	-0.11826	0.35446	0.11536	0.05249	-0.11871	-0.082703	-0.24536	-0.032654	-0.011902	0.04364	-0.010071	-0.030518	0.093231	-0.01709	-0.016022
32.79	-0.008392	-0.084534	-0.10941	0.024414	-0.014648	0.59662	0.02594	-0.010376	0.057373	-0.20081	-0.001068	0.005341	0.40283	0.20004	-0.16037	-0.000153	0.004578	-0.10941	0.33386	0.075226	0.053558	-0.090027	-0.14557	-0.2214	-0.041199	-0.016632	0.13107	-0.010529	-0.098114	0.20828	-0.018616	-0.01236
32.791	-0.002747	-0.068665	-0.085602	0.025787	-0.028534	0.60013	0.002899	0.001678	0.012665	-0.14282	0.098724	0.016632	0.15503	-0.069885	-0.45456	0.002289	-0.013428	-0.12741	0.36667	0.032654	0.042725	-0.07309	-0.18387	-0.27756	-0.036163	-0.019226	0.042419	-0.00885	-0.09613	0.21988	-0.010071	-0.023346
32.792	0.006561	-0.079651	-0.032654	-0.025787	-0.015717	0.60928	-0.010986	0.003052	0.034332	-0.1152	0.12222	0.005035	0.52536	-0.025635	-0.34454	-0.006104	0.054626	-0.16846	-0.017548	0.019073	0.033417	-0.061188	-0.14633	-0.21179	-0.045471	-0.010376	-0.28854	-0.008698	-0.058594	0.10315	-0.014038	-0.009003
32.793	-0.000458	-0.11459	-0.15671	-0.016174	-0.002136	0.38788	0.025024	0.005798	0.067596	-0.091858	0.15503	0.020447	0.016785	0.31021	-0.028076	-0.011139	0.17563	-0.21774	0.16083	-0.042572	0.046692	-0.071259	-0.20752	-0.1416	-0.031433	-0.003052	-0.55801	-0.008087	-0.069122	0.041809	-0.015259	-0.016022
32.794	0.000153	-0.13214	-0.10346	0.031891	-0.005188	-0.36636	0.039063	-0.001984	0.098724	-0.050507	0.052643	0.011749	-1.1678	0.091858	0.10727	-0.018463	0.21637	-0.18845	0.27878	-0.082092	0.040894	-0.068665	-0.074615	-0.087738	-0.023651	-0.010986	-0.45776	-0.004425	-0.13534	0.030823	-0.01709	-0.018616
32.795	0.001984	-0.13443	0.00473	0.022583	0.031891	-0.34088	0.011139	-0.010223	0.10742	-0.057678	-0.048981	0.011902	-0.18219	-0.2121	0.085297	-0.014343	0.089111	-0.16083	0.18707	-0.015564	0.023956	-0.075989	0.10223	-0.093689	-0.017853	-0.010681	-0.23712	-0.00885	-0.094452	0.028229	-0.008698	-0.018616
32.796	-0.000305	-0.1445	0.22034	0.000153	0.050049	-0.15854	0.044708	-0.016174	-0.12741	-0.08728	-0.033112	0.018768	0.18387	-0.15198	0.11017	-0.014191	-0.014191	-0.21072	0.15076	0.014801	0.014343	-0.052795	0.24658	-0.028992	-0.014954	-0.008392	-0.20783	-0.00824	-0.023499	0.068665	-0.011902	-0.004578
32.797	-0.003052	-0.055084	0.13977	-0.00351	0.032043	0.18646	0.080872	-0.012207	-0.32623	0.019226	0.007629	0.012512	0.43579	-0.09201	0.18005	-0.00351	-0.1091	-0.16113	0.17181	0.053101	0.024872	-0.052795	0.55283	0.007477	-0.036469	-0.005951	0.047607	-0.00824	0.070343	-0.014801	-0.010681	-0.012054
32.798	-0.011749	-0.075531	-0.046387	-0.014191	-0.026855	0.16647	0.011597	0.002136	-0.25162	0.063324	-0.00824	0.013733	0.38162	0.005035	0.15488	-0.00473	-0.16632	-0.13275	0.35004	0.073853	0.032654	-0.031586	0.54047	0.018921	0.005035	-0.012512	0.52185	-0.004272	-0.12573	-0.052948	-0.009766	-0.010529
32.799	-0.010529	-0.081329	-0.26504	-0.008087	-0.072784	0.09964	-0.022583	0.005646	-0.12695	0.05249	-0.061493	0.014496	0.46188	0.010071	0.12375	0.00412	-0.21362	-0.25391	0.35599	0.036163	0.034027	-0.00824	0.51178	-0.001068	0.004272	-0.016785	0.82657	-0.006256	-0.32211	-0.092163	-0.00946	-0.010376
32.8	-0.003204	-0.089264	-0.34683	0.012817	-0.067444	-0.22537	-0.10147	0.012512	-0.10864	0.14282	-0.063171	0.011902	-0.56625	-0.033569	0.11597	0.002136	-0.21805	-0.15442	0.37079	-0.041656	0.029144	0.012054	0.55924	-0.032654	-0.018616	-0.022736	0.93216	-0.003204	-0.28854	-0.1207	-0.013275	-0.013428
32.801	-0.002747	-0.052032	-0.16663	0.028839	-0.053406	-0.68344	-0.103	0.00885	0.035248	0.055084	-0.059357	0.011292	-0.69824	0.057373	-0.031738	-0.02182	-0.16678	-0.11902	0.25345	-0.10254	0.05722	0.006714	0.4747	-0.079803	-0.015869	-0.014038	0.97458	-0.002747	-0.1857	-0.1767	-0.014038	-0.010376
32.802	-0.001068	-0.077362	0.002136	0.026703	-0.040894	-0.61798	0.021973	-0.00061	0.10483	-0.19653	-0.075226	0.000763	-0.62668	-0.038757	-0.10696	-0.006714	-0.10361	-0.1297	0.30533	-0.21103	0.058136	-0.006409	0.26337	0.032349	0.002594	-0.006866	1.0977	-0.006256	-0.067291	-0.22201	-0.015564	-0.014801
32.803	0.061951	-0.055389	0.17578	0.004883	0.040741	-0.3273	0.065155	-0.007782	0.086823	-0.35858	-0.073547	0.014954	-0.1738	-0.14435	-0.097809	-0.000153	-0.049744	-0.10086	0.44662	-0.26321	0.066681	-0.006104	0.028381	0.075836	0.016174	-0.002289	0.62225	-0.00473	-0.002289	-0.16571	-0.009308	-0.010681
32.804	-0.055237	-0.045471	0.16769	-0.019226	0.112	-0.32577	-0.10422	-0.013885	0.03006	-0.36102	-0.034332	0.00473	0.7933	-0.15732	-0.053864	-0.000458	-0.027771	-0.05188	0.59418	-0.26962	0.067444	-0.014801	-0.22675	0.029449	0.018158	0.001984	-0.58319	-0.00061	0.033569	-0.095215	0.000153	-0.011139
32.805	-0.043182	-0.059509	0.036316	-0.004272	0.14053	-0.73837	-0.12207	-0.014343	0.070343	0.035553	-0.026855	0.004425	0.39841	-0.071411	0.033264	-0.006104	-0.00351	-0.050354	0.45685	-0.14999	0.047302	-0.01358	-0.36972	-0.023499	-0.010223	-0.001678	-0.89142	-0.005646	0.049286	-0.088196	-0.011292	-0.011139
32.806	-0.00824	-0.03952	0.051727	0.011749	0.12894	-0.64423	-0.007324	-0.007019	0.069885	0.53467	0.003204	0.007629	-0.43655	-0.095062	0.27405	0.007172	0.002289	-0.15335	0.31113	0.009155	0.034637	-0.007477	-0.38055	-0.033417	-0.006714	-0.002289	-0.4805	0.001831	-0.057983	0.009766	-0.001068	-0.021973
32.807	0.013428	-0.049744	0.009155	0.025482	0.03006	-0.27481	0.11475	0.00473	0.024414	0.23331	0.013885	-0.002594	-0.32562	-0.078583	0.093536	0.010834	0.013428	-0.10269	0.15747	0.018768	0.036163	-0.009613	-0.40604	-0.042419	-0.00946	-0.007172	-0.33981	-0.001221	-0.11795	0.089417	-0.001068	-0.018921
32.808	0.000153	0.010834	-0.048523	0.043335	-0.005493	-0.066528	0.097351	-0.002441	-0.011139	-0.062714	0.019836	0.012054	-0.048676	0.010376	-0.12009	0.014191	0.03067	-0.12131	0.058441	-0.043945	0.048218	0.000763	-0.38742	-0.055542	0.002289	0.00351	-0.25269	-0.002747	-0.61981	-0.07843	0.002594	-0.012665
32.809	-0.009613	0.017853	-0.088043	0.010071	0.002289	-0.000763	0.085754	-0.001984	-0.027466	-0.059052	0.001678	0.009766	0.13947	-0.006561	0.11795	0.005188	0.045929	-0.095978	-0.013885	-0.069122	0.038605	-0.001373	-0.3624	-0.026245	0.007324	0.009766	-0.34454	-0.000458	-0.37872	-0.11185	-0.010376	-0.016632
